<svg version="1.1" id="Layer_1" xmlns="http://www.w3.org/2000/svg" xmlns:xlink="http://www.w3.org/1999/xlink" x="0px" y="0px"
	 viewBox="0 0 33.162 5.214" style="enable-background:new 0 0 33.162 5.214;" xml:space="preserve">
<style type="text/css">
	.st0{fill:#414565;}
	.st1{fill:#E5E3E5;}
	.st2{fill:url(#SVGID_1_);}
	.st3{fill:#FFFFFF;}
</style>
<g>
	<path class="st0" d="M0.565,5.14C0.209,5.14,0,4.902,0,4.509V0.768c0-0.47,0.202-0.713,0.602-0.713
		c0.268,0,0.422,0.132,0.665,0.485l1.689,2.519h0.048V0.687c0-0.397,0.206-0.632,0.558-0.632c0.356,0,0.569,0.235,0.569,0.632v3.778
		c0,0.441-0.198,0.676-0.569,0.676c-0.272,0-0.437-0.114-0.687-0.481L1.171,2.108H1.123v2.401C1.123,4.906,0.921,5.14,0.565,5.14z"
		/>
	<path class="st0" d="M10.791,4.487V0.921c0-0.598,0.22-0.83,0.793-0.83h1.289c1.098,0,1.792,0.668,1.792,1.7
		c0,1.098-0.705,1.711-1.854,1.711h-0.808v0.984c0,0.415-0.22,0.654-0.61,0.654C11.008,5.14,10.791,4.906,10.791,4.487z M12.557,2.6
		c0.628,0,0.907-0.206,0.907-0.786c0-0.499-0.275-0.786-0.771-0.786h-0.687V2.6H12.557z"/>
	<path class="st0" d="M15.121,4.645c0-0.121,0.033-0.261,0.117-0.507l1.109-3.249c0.198-0.595,0.485-0.834,1.013-0.834
		c0.529,0,0.808,0.235,1.01,0.834l1.105,3.249c0.066,0.206,0.099,0.352,0.099,0.481c0,0.319-0.228,0.525-0.577,0.525
		c-0.323,0-0.51-0.176-0.631-0.591l-0.191-0.599h-1.685l-0.195,0.599c-0.121,0.426-0.294,0.591-0.617,0.591
		C15.349,5.144,15.121,4.938,15.121,4.645z M17.931,3.077l-0.562-1.898H17.31l-0.569,1.898H17.931z"/>
	<path class="st0" d="M21.341,5.14c-0.356,0-0.565-0.239-0.565-0.632V0.768c0-0.47,0.202-0.713,0.602-0.713
		c0.268,0,0.422,0.132,0.665,0.485l1.689,2.519h0.048V0.687c0-0.397,0.206-0.632,0.558-0.632c0.356,0,0.569,0.235,0.569,0.632v3.778
		c0,0.441-0.198,0.676-0.569,0.676c-0.272,0-0.437-0.114-0.687-0.481l-1.704-2.552h-0.048v2.401
		C21.899,4.906,21.697,5.14,21.341,5.14z"/>
	<path class="st0" d="M26.437,4.487V0.709c0-0.419,0.217-0.654,0.606-0.654c0.389,0,0.61,0.239,0.61,0.654v3.778
		c0,0.419-0.217,0.654-0.602,0.654C26.661,5.14,26.437,4.902,26.437,4.487z"/>
	<path class="st0" d="M28.995,2.306C28.995,0.863,29.792,0,31.172,0c0.654,0,1.234,0.198,1.594,0.547
		c0.242,0.235,0.389,0.522,0.389,0.749c0,0.294-0.202,0.488-0.496,0.488c-0.194,0-0.338-0.073-0.529-0.268
		c-0.276-0.338-0.533-0.492-0.885-0.492c-0.661,0-1.035,0.488-1.035,1.337v0.433c0,0.903,0.367,1.391,1.035,1.391
		c0.356,0,0.642-0.154,0.903-0.484c0.194-0.202,0.326-0.272,0.514-0.272c0.298,0,0.5,0.198,0.5,0.488
		c0,0.29-0.199,0.613-0.518,0.852c-0.36,0.279-0.867,0.444-1.473,0.444c-1.403,0-2.177-0.859-2.177-2.365V2.306z"/>
</g>
<ellipse class="st1" cx="7.534" cy="4.876" rx="1.414" ry="0.274"/>
<linearGradient id="SVGID_1_" gradientUnits="userSpaceOnUse" x1="5.3385" y1="2.4515" x2="9.8184" y2="2.4515">
	<stop  offset="0" style="stop-color:#F15F76"/>
	<stop  offset="0.3385" style="stop-color:#F3736C"/>
	<stop  offset="1" style="stop-color:#F89844"/>
</linearGradient>
<path class="st2" d="M7.579,0.027c-1.237,0-2.24,1.003-2.24,2.24c0,0.565,0.209,1.08,0.554,1.474L5.892,3.742l0.004,0.003
	C6.075,3.949,6.291,4.12,6.533,4.248l1.001,0.628l1.083-0.624c0.714-0.374,1.201-1.122,1.201-1.985
	C9.818,1.03,8.816,0.027,7.579,0.027z"/>
<circle class="st3" cx="7.579" cy="2.272" r="0.942"/>
</svg>
